<svg xmlns="http://www.w3.org/2000/svg" viewBox="0 0 150 100">
  <!-- Minimalist Shark Shape -->
  <g stroke="#7FFF00" fill="none" stroke-width="2" stroke-linecap="round" stroke-linejoin="round">
    <!-- Body -->
    <path d="M 10,50 Q 50,20 110,40 Q 130,50 140,55 Q 120,75 70,70 Q 30,65 10,50 Z" />
    <!-- Top Fin -->
    <path d="M 60,32 Q 65,10 80,15 Q 75,25 75,37" fill="#7FFF00" fill-opacity="0.2"/>
    <!-- Tail Fin -->
    <path d="M 15,47 Q 5,30 2,25 Q 10,40 10,50 Q 5,65 2,75 Q 10,60 15,53" fill="#7FFF00" fill-opacity="0.2"/>
    <!-- Eye -->
    <circle cx="100" cy="47" r="1.5" fill="#7FFF00" stroke="none"/>
    <!-- Gills -->
    <path d="M 85,55 L 82,65 M 90,56 L 87,66 M 95,57 L 92,67" stroke-width="1" />
  </g>
</svg>
